<svg style="background-color:#fff" viewBox="0 0 240 480" xmlns="http://www.w3.org/2000/svg">
<g transform="translate(10, 10)">
<line stroke="#000000" stroke-width="2" x1="50" x2="170" y1="100" y2="120"/>
<line stroke="#000000" stroke-width="2" x1="50" x2="50" y1="100" y2="120"/>
<line stroke="#000000" stroke-width="2" x1="50" x2="50" y1="220" y2="240"/>
<line stroke="#000000" stroke-width="2" x1="50" x2="50" y1="220" y2="360"/>
<line stroke="#000000" stroke-width="2" x1="50" x2="170" y1="340" y2="360"/>
<line stroke="#000000" stroke-width="2" x1="50" x2="50" y1="340" y2="360"/>
<line stroke="#000000" stroke-width="2" x1="170" x2="170" y1="220" y2="360"/>
<g transform="translate(0, 0)">
<rect fill="#ffffff" height="100" stroke="#000000" stroke-width="1" width="100"/>
<line stroke="#000" x1="0" x2="100" y1="16" y2="16"/>
<line stroke="#000" x1="0" x2="100" y1="26" y2="26"/>
<text font-size="12" text-anchor="middle" x="50" y="12">
test1
</text>
<g transform="translate(0, 16)"/>
<g transform="translate(0,26)"/>
</g>
<g transform="translate(0, 120)">
<rect fill="#ffffff" height="100" stroke="#000000" stroke-width="1" width="100"/>
<line stroke="#000" x1="0" x2="100" y1="16" y2="16"/>
<line stroke="#000" x1="0" x2="100" y1="26" y2="26"/>
<text font-size="12" text-anchor="middle" x="50" y="12">
test2
</text>
<g transform="translate(0, 16)"/>
<g transform="translate(0,26)"/>
</g>
<g transform="translate(0, 240)">
<rect fill="#ffffff" height="100" stroke="#000000" stroke-width="1" width="100"/>
<line stroke="#000" x1="0" x2="100" y1="16" y2="16"/>
<line stroke="#000" x1="0" x2="100" y1="26" y2="26"/>
<text font-size="12" text-anchor="middle" x="50" y="12">
test3
</text>
<g transform="translate(0, 16)"/>
<g transform="translate(0,26)"/>
</g>
<g transform="translate(0, 360)">
<rect fill="#ffffff" height="100" stroke="#000000" stroke-width="1" width="100"/>
<line stroke="#000" x1="0" x2="100" y1="16" y2="16"/>
<line stroke="#000" x1="0" x2="100" y1="26" y2="26"/>
<text font-size="12" text-anchor="middle" x="50" y="12">
test4
</text>
<g transform="translate(0, 16)"/>
<g transform="translate(0,26)"/>
</g>
<g transform="translate(120, 120)">
<rect fill="#ffffff" height="100" stroke="#000000" stroke-width="1" width="100"/>
<line stroke="#000" x1="0" x2="100" y1="16" y2="16"/>
<line stroke="#000" x1="0" x2="100" y1="26" y2="26"/>
<text font-size="12" text-anchor="middle" x="50" y="12">
test5
</text>
<g transform="translate(0, 16)"/>
<g transform="translate(0,26)"/>
</g>
<g transform="translate(120, 360)">
<rect fill="#ffffff" height="100" stroke="#000000" stroke-width="1" width="100"/>
<line stroke="#000" x1="0" x2="100" y1="16" y2="16"/>
<line stroke="#000" x1="0" x2="100" y1="26" y2="26"/>
<text font-size="12" text-anchor="middle" x="50" y="12">
test6
</text>
<g transform="translate(0, 16)"/>
<g transform="translate(0,26)"/>
</g>
<g transform="translate(120, 0)">
<rect fill="#ffffff" height="100" stroke="#000000" stroke-width="1" width="100"/>
<line stroke="#000" x1="0" x2="100" y1="16" y2="16"/>
<line stroke="#000" x1="0" x2="100" y1="26" y2="26"/>
<text font-size="12" text-anchor="middle" x="50" y="12">
test7
</text>
<g transform="translate(0, 16)"/>
<g transform="translate(0,26)"/>
</g>
</g>
</svg>